<svg version="1.1" xmlns="http://www.w3.org/2000/svg" viewBox="-210.9439956665039 -1064.960009765625 8180.736645507812 2620.4160400390624"><desc>Created with Snap</desc><defs></defs><g><rect x="-210.9439956665039" y="-1064.960009765625" width="8180.736645507812" height="2620.4160400390624" fill="#000000" style=""></rect><g transform="matrix(62.688,0,0,62.688,5656.5766,-757.4466)"><g display="none"><rect x="-289.333" y="-102.656" display="inline" fill="#ffffff" width="473.333" height="236" style=""></rect></g><g display="none"><g display="inline"><path fill="#ffffff" d="M30,1.995v28H2v-28H30 M32-0.005H0v32h32V-0.005L32-0.005z" style=""></path></g><g display="inline"><g><rect x="8.668" y="8.668" transform="matrix(0.7071 -0.7071 0.7071 0.7071 -6.6274 16)" fill="#ffffff" width="14.664" height="14.664" style=""></rect></g><g><rect x="12.552" y="12.552" transform="matrix(0.7071 -0.7071 0.7071 0.7071 -6.6274 16)" fill="#ffffff" width="6.896" height="6.896" style=""></rect></g></g></g><g><g><path d="M31,0.995v30H1v-30H31 M32-0.005H0v32h32V-0.005L32-0.005z" fill="#ffffff" style=""></path></g><g><g><path d="M16,7.045L24.955,16L16,24.955L7.045,16L16,7.045 M16,5.631L5.631,16L16,26.369L26.369,16L16,5.631L16,5.631z" fill="#ffffff" style=""></path></g><g><path d="M16,12.538L19.462,16L16,19.462L12.538,16L16,12.538 M16,11.124L11.124,16L16,20.876L20.876,16L16,11.124L16,11.124z" fill="#ffffff" style=""></path></g></g></g><g display="none"><g display="inline"><rect x="0.5" y="0.495" fill="#ffffff" width="31" height="31" style=""></rect><g><path d="M31,0.995v30H1v-30H31 M32-0.005H0v32h32V-0.005L32-0.005z" fill="#ffffff" style=""></path></g></g><g display="inline"><rect x="9.168" y="9.168" transform="matrix(0.7071 -0.7071 0.7071 0.7071 -6.6274 15.9988)" fill="#ffffff" width="13.664" height="13.664" style=""></rect><g><path d="M16,7.045L24.955,16L16,24.955L7.045,16L16,7.045 M16,5.631L5.631,16L16,26.369L26.369,16L16,5.631L16,5.631z" fill="#ffffff" style=""></path></g></g><g display="inline"><rect x="13.052" y="13.052" transform="matrix(0.7071 -0.7071 0.7071 0.7071 -6.6274 16)" fill="#ffffff" width="5.896" height="5.896" style=""></rect><g><path fill="#ffffff" d="M16,12.538L19.462,16L16,19.462L12.538,16L16,12.538 M16,11.124L11.124,16L16,20.876L20.876,16L16,11.124     L16,11.124z" style=""></path></g></g></g><g display="none"><rect x="0" y="-0.005" display="inline" fill="#ffffff" width="32" height="32" style=""></rect><rect x="8.668" y="8.668" transform="matrix(0.7071 -0.7071 0.7071 0.7071 -6.6274 16)" display="inline" fill="#ffffff" width="14.664" height="14.664" style=""></rect><rect x="12.552" y="12.552" transform="matrix(0.7071 -0.7071 0.7071 0.7071 -6.6274 16)" display="inline" fill="#ffffff" width="6.896" height="6.896" style=""></rect></g><desc>Created with Snap</desc><defs></defs></g><g><g transform="matrix(1.024,0,0,-1.024,0,0)"><path d="M606 700Q619 700 626 692Q634 684 634 672L634 32Q634 17 624 8Q615 0 603 0Q597 0 590 2Q583 5 579 10L133 611L150 620L150 27Q150 16 142 8Q134 0 122 0Q109 0 101 8Q94 16 94 27L94 670Q94 685 103 692Q112 700 123 700Q129 700 136 697Q143 695 147 689L588 95L578 77L578 672Q578 684 586 692Q595 700 606 700ZM1322 -4Q1309 -4 1300 7L1016 364L1063 411L1349 49Q1356 39 1356 28Q1356 12 1344 4Q1333 -4 1322 -4ZM1311 698Q1323 698 1331 689Q1340 680 1340 669Q1340 657 1331 648L877 223L869 291L1289 688Q1299 698 1311 698ZM853 0Q839 0 830 9Q822 18 822 31L822 669Q822 682 831 691Q840 700 854 700Q867 700 876 691Q885 682 885 669L885 31Q884 18 875 9Q866 0 853 0ZM1811 -10Q1734 -10 1668 17Q1602 44 1553 92Q1505 141 1478 207Q1451 273 1451 350Q1451 427 1478 493Q1505 559 1553 607Q1602 656 1668 683Q1734 710 1811 710Q1864 710 1913 697Q1963 685 2002 660Q2009 655 2012 648Q2016 642 2016 635Q2016 621 2007 612Q1998 604 1988 604Q1983 604 1978 605Q1974 607 1970 609Q1936 628 1896 639Q1856 650 1811 650Q1725 650 1658 611Q1591 572 1553 504Q1515 436 1515 350Q1515 264 1553 196Q1591 128 1658 89Q1725 50 1811 50Q1856 50 1901 63Q1947 76 1980 98L1975 77L1975 307L1990 293L1817 293Q1804 293 1795 302Q1786 311 1786 323Q1786 337 1795 345Q1804 353 1817 353L2008 353Q2021 353 2029 344Q2038 336 2038 323L2038 82Q2038 74 2034 67Q2030 60 2023 55Q1979 25 1924 7Q1870 -10 1811 -10ZM2495 700L2750 700Q2824 700 2879 672Q2935 644 2971 594Q3007 545 3024 482Q3042 419 3042 350Q3042 254 3010 174Q2979 95 2914 47Q2850 0 2750 0L2495 0Q2483 0 2474 9Q2465 18 2465 30L2465 670Q2465 682 2474 691Q2483 700 2495 700ZM2522 59L2740 59Q2825 59 2877 98Q2929 137 2953 203Q2978 270 2978 350Q2978 408 2964 460Q2951 513 2922 553Q2894 594 2848 617Q2803 641 2740 641L2521 641L2528 650L2528 49L2522 59ZM3227 490L3227 30Q3227 18 3218 9Q3209 0 3197 0Q3184 0 3175 9Q3167 18 3167 30L3167 490Q3167 502 3175 511Q3184 520 3197 520Q3210 520 3218 511Q3227 502 3227 490ZM3197 587Q3176 587 3165 596Q3155 606 3155 624L3155 634Q3155 652 3166 661Q3178 671 3198 671Q3217 671 3227 661Q3238 652 3238 634L3238 624Q3238 606 3227 596Q3217 587 3197 587ZM3592 523Q3636 523 3674 507Q3712 492 3740 467Q3769 443 3785 415Q3801 388 3801 363L3785 387L3785 480Q3785 493 3793 502Q3802 511 3815 511Q3828 511 3836 502Q3845 493 3845 480L3845 47Q3845 -33 3812 -88Q3779 -143 3722 -172Q3666 -200 3594 -200Q3559 -200 3520 -191Q3482 -182 3454 -168Q3427 -154 3423 -139Q3416 -130 3416 -122Q3417 -113 3425 -107Q3434 -100 3445 -106Q3457 -111 3479 -120Q3488 -123 3505 -129Q3523 -135 3546 -140Q3570 -144 3595 -144Q3685 -144 3735 -93Q3785 -41 3785 43L3785 139L3796 136Q3787 100 3766 73Q3745 46 3717 27Q3689 9 3657 -1Q3625 -10 3593 -10Q3524 -10 3468 25Q3413 60 3381 120Q3349 180 3349 257Q3349 333 3381 393Q3413 454 3468 488Q3523 523 3592 523ZM3598 467Q3544 467 3500 439Q3457 412 3432 364Q3408 317 3408 257Q3408 197 3432 149Q3457 101 3500 73Q3544 46 3598 46Q3653 46 3696 73Q3739 100 3764 147Q3789 195 3789 257Q3789 319 3764 366Q3739 414 3696 440Q3653 467 3598 467ZM4061 490L4061 30Q4061 18 4052 9Q4043 0 4031 0Q4018 0 4009 9Q4001 18 4001 30L4001 490Q4001 502 4009 511Q4018 520 4031 520Q4044 520 4052 511Q4061 502 4061 490ZM4031 587Q4010 587 3999 596Q3989 606 3989 624L3989 634Q3989 652 4000 661Q4012 671 4032 671Q4051 671 4061 661Q4072 652 4072 634L4072 624Q4072 606 4061 596Q4051 587 4031 587ZM4184 509L4417 509Q4429 509 4437 500Q4445 492 4445 480Q4445 469 4437 461Q4429 453 4417 453L4184 453Q4172 453 4163 461Q4155 470 4155 481Q4155 493 4163 501Q4172 509 4184 509ZM4287 650Q4300 650 4308 641Q4317 632 4317 620L4317 118Q4317 90 4324 76Q4332 62 4344 57Q4356 53 4368 53Q4376 53 4382 55Q4389 58 4397 58Q4406 58 4412 51Q4419 44 4419 33Q4419 19 4403 9Q4387 0 4365 0Q4356 0 4338 1Q4320 3 4301 12Q4282 22 4269 46Q4257 70 4257 115L4257 620Q4257 632 4265 641Q4274 650 4287 650ZM4971 511Q4984 511 4992 502Q5001 493 5001 480L5001 30Q5001 18 4992 9Q4983 0 4971 0Q4957 0 4949 9Q4941 18 4941 30L4941 149L4958 157Q4958 129 4942 100Q4927 71 4900 46Q4873 21 4836 5Q4800 -10 4757 -10Q4690 -10 4636 25Q4583 60 4552 121Q4522 182 4522 258Q4522 336 4553 395Q4584 455 4637 489Q4690 523 4756 523Q4799 523 4836 508Q4874 493 4902 467Q4930 441 4946 407Q4962 374 4962 338L4941 353L4941 480Q4941 493 4949 502Q4957 511 4971 511ZM4763 46Q4816 46 4857 73Q4898 101 4921 149Q4945 198 4945 258Q4945 317 4921 364Q4898 411 4857 439Q4816 467 4763 467Q4711 467 4669 440Q4628 413 4604 366Q4581 319 4581 258Q4581 198 4604 149Q4627 101 4668 73Q4710 46 4763 46ZM5224 710L5224 30Q5224 18 5215 9Q5206 0 5194 0Q5181 0 5172 9Q5164 18 5164 30L5164 710Q5164 722 5173 731Q5182 740 5194 740Q5207 740 5215 731Q5224 722 5224 710Z" fill="#ffffff" style=""></path></g></g><g transform="matrix(1,0,0,1,3625.2166,1238.016)"><g transform="matrix(1.024,0,0,-1.024,0,0)"><path d="M138 59L481 59Q493 59 502 50Q511 42 511 30Q511 17 502 8Q493 0 481 0L124 0Q111 0 102 9Q94 18 94 30L94 670Q94 682 103 691Q112 700 126 700Q138 700 147 691Q157 682 157 670L157 42L138 59ZM670 59L1013 59Q1025 59 1034 50Q1043 42 1043 30Q1043 17 1034 8Q1025 0 1013 0L656 0Q643 0 634 9Q626 18 626 30L626 670Q626 682 635 691Q644 700 658 700Q670 700 679 691Q689 682 689 670L689 42L670 59ZM1669 648Q1681 640 1683 627Q1685 615 1677 603Q1670 594 1659 593Q1648 592 1638 597Q1600 622 1556 636Q1513 650 1463 650Q1402 650 1349 628Q1297 607 1258 566Q1219 526 1197 471Q1176 416 1176 350Q1176 282 1198 226Q1220 171 1259 131Q1299 91 1351 70Q1403 49 1463 49Q1512 49 1555 63Q1599 77 1637 101Q1647 107 1658 105Q1670 104 1677 94Q1686 83 1683 70Q1681 58 1670 51Q1645 35 1611 21Q1577 7 1539 -2Q1501 -10 1463 -10Q1391 -10 1328 16Q1265 42 1216 89Q1167 137 1139 203Q1112 269 1112 350Q1112 428 1139 493Q1166 559 1214 607Q1262 655 1326 682Q1390 709 1463 709Q1520 709 1573 693Q1626 677 1669 648Z" fill="#ffffff" style=""></path></g></g></g></svg>